# xmcd
#
# Track frame offsets: 
#        150
#        17101
#        33750
#        46762
#        62792
#        74448
#        90976
#        106088
#        120412
#        145500
#        165787
#        180161
#
# Disc length: 2698 seconds
#
# Revision: 0
# Processed by: cddbd v1.5.2PL0 Copyright (c) Steve Scherf et al.
# Submitted via: ExactAudioCopy v0.99pb5
#
DISCID=800a880c
DTITLE=The Mallett Brothers Band - The Mallett Brothers Band
DYEAR=2010
DGENRE=Alt. Country
TTITLE0=Black Moon
TTITLE1=Walk Down the River
TTITLE2=Carolanne
TTITLE3=Last Man Standing
TTITLE4=F-150
TTITLE5=Watch You Walk Away
TTITLE6=On That Hill
TTITLE7=Emily
TTITLE8=Take It Back
TTITLE9=Headed Home
TTITLE10=Hard Light
TTITLE11=Wrong Kind of Woman
EXTD=
EXTT0=
EXTT1=
EXTT2=
EXTT3=
EXTT4=
EXTT5=
EXTT6=
EXTT7=
EXTT8=
EXTT9=
EXTT10=
EXTT11=
PLAYORDER=
